<svg xmlns="http://www.w3.org/2000/svg" xml:space="preserve" width="1500" height="133" data-id="lg_iAj62BdNpZSO6FOaKE" data-version="1" viewBox="0 0 1500 133"><g data-padding="20"><g transform="translate(10 2.375)scale(.96429)"><rect width="428.725" height="115.26" x="152.721" y="-391.132" fill="none" rx="0" ry="0" transform="translate(466.14 400.23)"/><g transform="translate(283.45 398.61)"><linearGradient id="a" x1="0" x2="1" y1="0" y2="0" gradientUnits="objectBoundingBox"><stop offset="0%" stop-color="#9c7945"/><stop offset="49.8%" stop-color="#faf3aa"/><stop offset="100%" stop-color="#9c7945"/></linearGradient><path fill="url(#a)" d="M659.354 34.098q-7.55 0-13.11 2.7-5.56 2.71-9.23 7.04-3.67 4.34-5.46 9.74-1.78 5.41-1.78 10.71 0 6.02 2.34 11.78 2.35 5.77 6.48 10.2 4.13 4.44 9.64 7.14 5.51 2.71 11.93 2.71 1.84 0 4.34-.41t4.95-1.58q2.44-1.17 4.54-3.32 2.09-2.14 3.21-5.61h1.02v11.33q-1.53 0-3.21.4-1.69.41-3.73.92-2.65.72-5.86 1.33-3.22.61-6.79.61-8.87 0-15.6-3.06t-11.22-7.96q-4.49-4.89-6.73-11.06-2.25-6.17-2.25-12.5 0-6.32 2.25-12.54 2.24-6.23 6.83-11.17 4.59-4.95 11.53-8.01 6.93-3.06 16.32-3.06 3.36 0 6.07.61 2.7.61 4.84 1.23 1.53.51 2.81.76 1.27.26 2.49.26v11.32h-1.02q-.61-3.16-2.24-5.26-1.63-2.09-3.82-3.21-2.2-1.12-4.7-1.58t-4.84-.46" transform="translate(-283.44 -398.61)"/></g><path fill="url(#a)" d="M723.814 98.768h-9.89v-5.2l-.51.51q-2.55 2.55-5.87 3.98-3.31 1.42-8 1.42-3.57 0-6.12-.81-2.55-.82-4.19-2.3-1.63-1.48-2.39-3.41-.77-1.94-.77-4.08 0-3.47 1.89-6.12 1.89-2.66 5.46-4.7t8.72-3.72 11.78-3.31q-.21-3.98-1.63-6.43-1.43-2.45-3.37-3.83-1.94-1.37-4.08-1.83t-3.67-.46q-2.65 0-4.64.82-1.99.81-3.47 2.09-1.48 1.27-2.5 2.75t-1.63 2.81h-.92v-7.45q.82-.1 1.53-.51t1.73-.82q1.53-.61 4.19-1.78 2.65-1.17 7.44-1.17 5.61 0 9.08 1.42 3.47 1.43 5.36 3.78 1.88 2.34 2.49 5.35.62 3.01.62 6.17v20.2q0 2.04.91 3.82.92 1.79 2.45 1.79Zm-11.01-8.47 1.12-1.22v-14.59l-1.02.21q-2.45.61-5.97 1.63t-6.68 2.65-5.41 3.88q-2.24 2.24-2.24 5.2 0 3.26 2.65 5.41 2.65 2.14 6.94 2.14 3.36 0 5.91-1.48t4.7-3.83m48.75-33.15-3.06 6.23q-1.22-2.04-2.55-2.55-1.32-.51-3.06-.51-1.12 0-2.39.51-1.28.51-2.5 1.32-1.23.82-2.4 1.79t-1.99 1.78v26.52q0 .82.2 1.74.21.91.67 1.78t1.02 1.43 1.37.56v1.02h-13.26v-1.02q.72 0 1.33-.56t1.07-1.43.66-1.78q.21-.92.21-1.74v-28.46q0-1.42-.92-2.85t-2.65-1.84v-.81l10.3-3.06v6.12q.92-1.13 1.94-2.2t2.29-1.94q1.28-.86 2.81-1.42t3.57-.56q1.43 0 3.67.61t3.67 1.32"/><path fill="url(#a)" d="M781.754 98.768h-13.36v-1.02q.81 0 1.42-.61.62-.61 1.08-1.43.45-.82.66-1.79.2-.96.2-1.78v-52.22q0-1.74-.51-3.27t-3.06-1.63v-1.02l10.3-3.16v61.3q0 .82.21 1.78.2.97.66 1.79t1.02 1.43 1.38.61Z" transform="translate(.01 .01)"/><path fill="url(#a)" d="M812.964 99.478q-5.1 0-9.18-1.68t-6.99-4.59q-2.9-2.91-4.48-6.88-1.59-3.98-1.59-8.67 0-5 1.74-9.13 1.73-4.13 4.79-7.09t7.24-4.59q4.19-1.63 9.08-1.63 4.9 0 8.98 1.58t7.04 4.43q2.95 2.86 4.59 6.79 1.63 3.92 1.63 8.62 0 4.38-1.48 8.51t-4.39 7.3q-2.9 3.16-7.14 5.1-4.23 1.93-9.84 1.93m-.61-40.9q-3.67.21-6.48 1.79-2.8 1.58-4.69 4.08t-2.86 5.66-.97 6.42q0 3.78 1.18 7.3 1.17 3.52 3.36 6.27 2.2 2.75 5.26 4.39 3.06 1.63 6.83 1.63t6.68-1.63q2.91-1.64 4.85-4.24 1.93-2.6 2.9-5.86.97-3.27.97-6.53 0-3.37-1.02-6.78-1.02-3.42-3.16-6.23-2.14-2.8-5.35-4.53-3.22-1.74-7.5-1.74"/><path fill="url(#a)" d="M885.894 72.448v19.69q0 .82.2 1.78.21.97.67 1.79t1.02 1.43 1.37.61v1.02h-13.15v-1.02q.71 0 1.32-.61t1.07-1.43.67-1.79q.2-.96.2-1.78v-18.97q0-3.67-1.02-6.43-1.02-2.75-2.75-4.59-1.74-1.83-3.93-2.7t-4.44-.87q-2.24 0-4.43.92-2.2.92-3.88 2.4t-2.75 3.46q-1.08 1.99-1.08 4.14v22.64q0 .82.21 1.78.2.97.66 1.79t1.02 1.43 1.38.61v1.02h-13.26v-1.02q.71 0 1.32-.61.62-.61 1.08-1.43.45-.82.66-1.79.2-.96.2-1.78v-28.15q0-1.74-.51-3.32t-2.96-1.68v-.92l10.2-3.26v5.61q.72-.82 1.84-1.79t2.7-1.83q1.58-.87 3.68-1.43 2.09-.56 4.94-.56 4.8 0 8.16 1.63 3.37 1.63 5.51 4.23t3.11 5.71q.97 3.12.97 6.07" transform="translate(.01)"/><path fill="url(#a)" d="M936.794 87.138v7.96q-.82 0-1.53.35-.72.36-1.63.87-1.74 1.02-4.39 2.09t-6.94 1.07q-5.2 0-9.63-1.68-4.44-1.68-7.65-4.69-3.22-3.01-5-7.04-1.79-4.03-1.79-8.72 0-4.39 1.58-8.36 1.58-3.98 4.54-7.04t7.3-4.9q4.33-1.83 9.84-1.83 3.77 0 6.12.86 2.34.87 3.98 1.69.91.51 1.78.81.87.31 1.79.31v7.75h-1.02q-.51-1.94-1.84-3.42t-3.06-2.5-3.77-1.53-3.98-.51q-4.18 0-7.35 1.48-3.16 1.48-5.2 3.88t-3.06 5.46-1.02 6.32q0 3.77 1.23 7.39 1.22 3.63 3.52 6.48 2.29 2.86 5.55 4.59 3.27 1.74 7.35 1.74 2.85 0 5.25-.82t4.08-2.14q1.68-1.33 2.7-2.91t1.23-3.01Zm47.84-14.69v19.69q0 .82.2 1.78.2.97.66 1.79t1.02 1.43 1.38.61v1.02h-13.16v-1.02q.72 0 1.33-.61t1.07-1.43.66-1.79q.21-.96.21-1.78v-18.97q0-3.67-1.02-6.43-1.02-2.75-2.76-4.59-1.73-1.83-3.92-2.7-2.2-.87-4.44-.87-2.25 0-4.44.87t-3.87 2.4q-1.69 1.53-2.76 3.72t-1.07 4.84v21.73q0 .82.2 1.78.21.97.67 1.79t1.02 1.43 1.37.61v1.02h-13.26v-1.02q.72 0 1.33-.61t1.07-1.43.66-1.79q.21-.96.21-1.78v-52.12q0-1.74-.51-3.27t-2.96-1.63v-1.02l10.2-3.16v29.48q.71-.82 1.84-1.79 1.12-.97 2.7-1.83 1.58-.87 3.67-1.43t4.95-.56q4.79 0 8.16 1.63 3.36 1.63 5.51 4.23 2.14 2.6 3.11 5.71.97 3.12.97 6.07m34.68 27.03q-5.1 0-9.18-1.68t-6.99-4.59-4.49-6.88q-1.58-3.98-1.58-8.67 0-5 1.73-9.13 1.74-4.13 4.8-7.09t7.24-4.59 9.08-1.63q4.89 0 8.97 1.58t7.04 4.43q2.96 2.86 4.59 6.79 1.63 3.92 1.63 8.62 0 4.38-1.47 8.51-1.48 4.13-4.39 7.3-2.91 3.16-7.14 5.1-4.23 1.93-9.84 1.93m-.62-40.9q-3.67.21-6.47 1.79-2.81 1.58-4.69 4.08-1.89 2.5-2.86 5.66t-.97 6.42q0 3.78 1.17 7.3 1.18 3.52 3.37 6.27t5.25 4.39q3.06 1.63 6.84 1.63 3.77 0 6.68-1.63 2.9-1.64 4.84-4.24t2.91-5.86q.97-3.27.97-6.53 0-3.37-1.02-6.78-1.02-3.42-3.16-6.23-2.15-2.8-5.36-4.53-3.21-1.74-7.5-1.74"/><g transform="translate(176.34 400)scale(1.33)"><linearGradient id="b" x1="0" x2="1" y1="0" y2="0" gradientUnits="objectBoundingBox"><stop offset="0%" stop-color="#9c7945"/><stop offset="49.8%" stop-color="#faf3aa"/><stop offset="100%" stop-color="#9c7945"/></linearGradient><path fill="url(#b)" d="m371.003-160.653-14.26-17.04-1.07.65-3.16-6.58 2.81 1.04s4.12-12.88 7.98-23.87c4.2-12 4.85-34.5-9.95-36.83-8.74-14.03-40.27-4.94-49.87.28-7.33 4-9.99 1.83-11.74.64-1.05 6.3 5.71 10.16 5.71 10.16s-4.12 10.64-4.12 13.81 2.22 4.58 0 7.44c-2.22 2.85-7.93 12.68-6.66 13.95s6.66 2.86 6.66 2.86l3.8 12.37s-3.17 7.3-1.9 8.56 3.27 4.87 6.66 4.44c4.45-.56 16.5-2.54 16.5-2.54l5.88 13.42-2.95 1.81-1.66 5.33h38.58Z" transform="translate(-52.74 -50)"/></g></g><path fill="transparent" stroke="transparent" d="M470 0h560v133H470z"/></g></svg>